<svg xmlns="http://www.w3.org/2000/svg" width="63.811" height="69.51" viewBox="0 0 63.811 69.51">
    <defs>
        <style>
            .prefix__cls-1{fill:#584db3}
        </style>
    </defs>
    <g id="prefix__Group_3217" data-name="Group 3217" transform="translate(-257.666 -1182.153)">
        <path id="prefix__Path_25113" d="M260.215 1217.491c-.333-.372-.607-.673-.876-.979a6.134 6.134 0 0 1 1.668-9.657c1.8-.934.877-2.411 1.16-3.648.228-1-.371-1.423-1.181-1.861a5.835 5.835 0 0 1-3.223-5.9 6.2 6.2 0 0 1 3.862-5.388 2.883 2.883 0 0 0 1.383-1.391c1.236-3.458 3.577-5.726 7.24-5.913 7.28-.37 14.575-.481 21.866-.6 2.113-.034 4.232.277 6.349.431 5.364.389 8.372 3.532 8.573 8.918.075 2.017.263 4.031.306 6.048.023 1.042.473 1.153 1.413 1.278a16.831 16.831 0 0 1 4.229 1.24c.381.16.454 1.052.668 1.609-.583.067-1.294.386-1.727.163-3.619-1.866-6.647-.51-7.41 3.51-1.3 6.871-.213 13.279 3.918 19.051 1.194 1.667 1.04 2.079-1.011 2.648-.134 2.327-.3 4.694-.4 7.062a8.2 8.2 0 0 1-8.009 8.264c-4.8.316-9.609.528-14.413.79-.293.016-.584.068-1.229.146 2.107 2.329 4.222 4.158 6.983 5.059 7.382 2.408 14.141.884 20.244-3.628 9.363-6.922 11.188-16.727 5.05-26.63a14.668 14.668 0 0 1-2.076-11.283c.142-.649.02-1.365.215-1.988.141-.448.608-.794.93-1.185.379.343 1 .636 1.086 1.042a5.379 5.379 0 0 1-.062 2.289 13.009 13.009 0 0 0 1.9 10.232 25.726 25.726 0 0 1 3.65 9.992c.9 6.37-1.467 11.65-5.768 16.066-6.945 7.13-15.273 10.087-25.144 7.408-3.784-1.027-6.669-3.482-9.089-6.474a3.187 3.187 0 0 0-2.624-1.28q-4.34-.171-8.668-.614a8.143 8.143 0 0 1-7.2-7.239 15.53 15.53 0 0 1-.2-2.319c.079-2.275-.163-4.09-2.6-5.434-2.65-1.459-3.619-6.217.217-9.835zM303.788 1201a1.96 1.96 0 0 0 1.479-2.182c-.211-2.527-.3-5.063-.448-7.595-.241-3.986-2.385-6.042-6.363-6.422a142.085 142.085 0 0 0-27.132 0c-4.125.394-6.283 2.5-6.452 6.671-.207 5.12-.564 10.244-.533 15.364.054 9.109.286 18.218.579 27.323.113 3.515 2.245 5.619 5.73 6.021a123.716 123.716 0 0 0 28.663-.029 5.924 5.924 0 0 0 5.493-5.915c.173-3 .426-5.995.442-8.993a17.029 17.029 0 0 0-.8-3.7l-.56.107c-.167 2.974-.281 5.951-.513 8.92-.311 3.976-2.762 6.642-6.686 6.868-5.679.327-11.374.379-17.063.542a1.705 1.705 0 0 1-.914-.09 10.759 10.759 0 0 1-1.239-1.125 6.044 6.044 0 0 1 1.316-.994 4.415 4.415 0 0 1 1.384-.006c5.48-.171 10.964-.272 16.438-.56 2.766-.145 4.357-1.816 4.545-4.589a279.819 279.819 0 0 0 .043-35.855c-.2-3.271-2.1-4.946-5.366-5a3.846 3.846 0 0 0-1.467.575c-1.182.55-2.336 1.546-3.537 1.6-4.074.195-8.169.163-12.245-.019-1.059-.047-2.074-.967-3.121-1.461a4.337 4.337 0 0 0-1.723-.678c-3.335.116-5.044 1.911-5.245 5.285a286.183 286.183 0 0 0-.049 33.992c.263 4.427 1.247 5.589 5.59 6.346.54.094.975.79 1.458 1.208-.558.314-1.124.911-1.675.9-4.475-.111-7.315-2.742-7.477-7.238-.275-7.6-.41-15.212-.446-22.82-.02-4.293.191-8.592.452-12.88.251-4.137 2.8-6.618 6.909-7.006.516-.049 1.036-.065 1.546-.143a1.828 1.828 0 0 1 2.025 1.012 2.87 2.87 0 0 0 1.925 1.262c3.974.127 7.958.159 11.931.021.789-.028 1.539-.95 2.323-1.434a5.194 5.194 0 0 1 1.626-.863 7.3 7.3 0 0 1 2 .159 7.073 7.073 0 0 1 6.74 6.859c.18 2.153.277 4.308.417 6.562zm-41.218-8.693a3.609 3.609 0 0 0-2.639 3.723 3.169 3.169 0 0 0 2.334 3.192zm-.575 33.762v-6.931a4.045 4.045 0 0 0-2.006 3.954 3.229 3.229 0 0 0 2.006 2.978zm-.041-17.215c-1.631 1.176-2.181 2.431-1.973 3.976a3.247 3.247 0 0 0 1.973 2.815z" class="prefix__cls-1" data-name="Path 25113"/>
        <path id="prefix__Path_25114" d="M284.131 1212.393c1.471-2.947 2.835-5.671 4.191-8.4 1.127-2.266 2.563-2.784 4.794-1.715 4.313 2.065 4.555 2.664 2.48 6.945-2.143 4.425-4.375 8.807-6.538 13.222a3.629 3.629 0 0 1-3.044 2.032c-3.473.562-5.989-.285-7.455-3.8a52.326 52.326 0 0 0-3.371-5.754c-1.268-2.195-.933-3.5 1.165-4.818 4.067-2.553 4.6-2.436 7.231 1.576.108.17.241.319.547.712zm.125 9.863c1.052-.2 2.333.384 3.053-1.117 2.276-4.751 4.662-9.449 6.978-14.181.188-.384.358-1.165.208-1.265a12.514 12.514 0 0 0-3.1-1.617c-.277-.086-1.024.831-1.322 1.408-1.565 3.027-3.037 6.1-4.581 9.142-.851 1.676-1.626 1.708-2.621.167-.392-.608-.768-1.226-1.133-1.85-1.722-2.951-1.183-2.695-4.213-1.015-.983.545-.977 1.092-.421 1.976 1.4 2.23 2.78 4.479 4.043 6.789.709 1.307 1.553 2.026 3.109 1.563z" class="prefix__cls-1" data-name="Path 25114"/>
        <path id="prefix__Path_25115" d="M284.926 1188.166a31.732 31.732 0 0 1-3.868-.049c-.568-.071-1.07-.676-1.6-1.039.517-.367 1.021-1.03 1.553-1.053 2.579-.11 5.167-.11 7.745 0 .522.023 1.014.7 1.52 1.08-.491.344-.955.926-1.478.985a34.672 34.672 0 0 1-3.87.047z" class="prefix__cls-1" data-name="Path 25115"/>
    </g>
</svg>
