<svg xmlns="http://www.w3.org/2000/svg" width="65.556" height="65.555" viewBox="0 0 65.556 65.555">
    <defs>
        <style>
            .prefix__cls-1{fill:#584db3}
        </style>
    </defs>
    <g id="prefix__Group_3170" data-name="Group 3170" transform="translate(-768.443 -1183.147)">
        <g id="prefix__Group_3169" data-name="Group 3169">
            <path id="prefix__Path_24989" d="M826.679 1232.511a1.281 1.281 0 0 0-1.281 1.281v13.629a1.28 1.28 0 1 0 2.561 0v-13.629a1.28 1.28 0 0 0-1.28-1.281z" class="prefix__cls-1" data-name="Path 24989"/>
            <path id="prefix__Path_24990" d="M826.679 1226.75a1.28 1.28 0 1 0 .9.375 1.293 1.293 0 0 0-.9-.375z" class="prefix__cls-1" data-name="Path 24990"/>
        </g>
        <path id="prefix__Path_24991" d="M829.9 1199.726a4.066 4.066 0 0 0-1.531.3v-2.543a4.1 4.1 0 0 0-5.634-3.8v-.5a4.1 4.1 0 1 0-8.194 0v.5a4.095 4.095 0 0 0-5.633 3.8V1208a4.08 4.08 0 0 0-3.074 0v-.5a4.1 4.1 0 0 0-4.1-4.1 4.148 4.148 0 0 0-.931.108v-5.625a4.094 4.094 0 0 0-5.628-3.8v-2.543a4.1 4.1 0 0 0-5.634-3.8v-.5a4.1 4.1 0 1 0-8.194 0v.5a4.1 4.1 0 0 0-5.634 3.8v9.587a4.175 4.175 0 0 0-3.83-1.33 4.167 4.167 0 0 0-3.364 4.909l1.479 7.5a15.061 15.061 0 0 0 4.157 7.779l2.676 2.669v24.765a1.28 1.28 0 1 0 2.561 0v-25.3a1.282 1.282 0 0 0-.376-.906l-3.053-3.044a12.516 12.516 0 0 1-3.453-6.462l-1.479-7.5a1.606 1.606 0 0 1 3.135-.693l1.007 4.107a1.573 1.573 0 0 0 3.1-.375v-15.71a1.536 1.536 0 0 1 3.073 0v13.964a1.28 1.28 0 0 0 2.561 0v-18.256a1.536 1.536 0 1 1 3.072 0v18.256a1.28 1.28 0 0 0 2.561 0v-13.956a1.536 1.536 0 0 1 3.073 0v12.318a1.281 1.281 0 0 0 2.561 0v-6.077a1.536 1.536 0 0 1 3.068.1v7.474a4.065 4.065 0 0 0-.606 2.14v.5a4.1 4.1 0 0 0-5.634 3.8v9.588a4.176 4.176 0 0 0-3.83-1.331 4.167 4.167 0 0 0-3.364 4.909l1.478 7.5a15.064 15.064 0 0 0 4.157 7.779l2.677 2.669v4.509a1.28 1.28 0 1 0 2.56 0v-5.04a1.281 1.281 0 0 0-.376-.907l-3.053-3.044a12.505 12.505 0 0 1-3.452-6.461l-1.479-7.5a1.607 1.607 0 0 1 1.3-1.892 1.61 1.61 0 0 1 1.838 1.2l1.007 4.107a1.573 1.573 0 0 0 3.1-.374V1211.8a1.536 1.536 0 1 1 3.072 0v13.955a1.28 1.28 0 1 0 2.561 0V1207.5a1.536 1.536 0 0 1 3.073 0v18.256a1.281 1.281 0 1 0 2.561 0V1211.8a1.536 1.536 0 0 1 3.068-.1v14.057a1.281 1.281 0 0 0 1.28 1.281h.005a1.281 1.281 0 0 0 1.28-1.281v-7.715a1.536 1.536 0 0 1 3.068.1v12.443a12.64 12.64 0 0 1-3.69 8.89l-1.973 1.968a1.278 1.278 0 0 0-.376.906v5.072a1.28 1.28 0 1 0 2.56 0v-4.54l1.6-1.592a15.017 15.017 0 0 0 4.443-10.7v-12.443a4.1 4.1 0 0 0-5.629-3.8v-16.862a1.536 1.536 0 1 1 3.073 0v12.555a1.281 1.281 0 0 0 2.561 0v-16.855a1.536 1.536 0 0 1 3.073 0v18.256a1.28 1.28 0 1 0 2.56 0v-13.956a1.536 1.536 0 1 1 3.073 0l-.005 13.956a1.28 1.28 0 0 0 1.28 1.28h.006a1.28 1.28 0 0 0 1.28-1.28v-7.715a1.536 1.536 0 0 1 3.068.1v12.442a12.534 12.534 0 0 1-1.991 6.784 1.28 1.28 0 1 0 2.155 1.383 15.082 15.082 0 0 0 2.4-8.167v-12.442a4.1 4.1 0 0 0-4.1-4.1z" class="prefix__cls-1" data-name="Path 24991"/>
    </g>
</svg>
