<svg xmlns="http://www.w3.org/2000/svg" width="64.4" height="49.373" viewBox="0 0 64.4 49.373">
    <defs>
        <style>
            .prefix__cls-1{fill:#584db3}
        </style>
    </defs>
    <g id="prefix__Group_3167" data-name="Group 3167" transform="translate(-1032.114 -1192.339)">
        <path id="prefix__Path_24965" d="M1065.388 1219.172a1.074 1.074 0 0 0-1.074 1.073v4.294a1.074 1.074 0 0 0 1.074 1.073h8.586a1.074 1.074 0 0 0 1.074-1.073v-4.294a1.074 1.074 0 0 0-1.074-1.073zm7.513 4.293h-6.44v-2.146h6.44z" class="prefix__cls-1" data-name="Path 24965"/>
        <path id="prefix__Path_24966" d="M1079.341 1213.805v-4.293a1.073 1.073 0 0 0-1.073-1.073h-12.88a1.073 1.073 0 0 0-1.074 1.073v4.293a1.074 1.074 0 0 0 1.074 1.074h12.88a1.074 1.074 0 0 0 1.073-1.074zm-2.147-1.073h-10.733v-2.147h10.733z" class="prefix__cls-1" data-name="Path 24966"/>
        <path id="prefix__Path_24967" d="M1085.781 1203.072v-4.293a1.074 1.074 0 0 0-1.073-1.074h-19.32a1.074 1.074 0 0 0-1.074 1.074v4.293a1.073 1.073 0 0 0 1.074 1.073h19.32a1.073 1.073 0 0 0 1.073-1.073zm-2.147-1.073h-17.173v-2.147h17.173z" class="prefix__cls-1" data-name="Path 24967"/>
        <path id="prefix__Path_24968" d="M1044.994 1206.292h6.44a1.074 1.074 0 0 0 1.074-1.073v-6.44a1.074 1.074 0 0 0-1.074-1.074h-6.44a1.073 1.073 0 0 0-1.073 1.074v6.44a1.073 1.073 0 0 0 1.073 1.073zm1.074-6.44h4.293v4.293h-4.293z" class="prefix__cls-1" data-name="Path 24968"/>
        <path id="prefix__Path_24969" d="M1052.508 1211.541l3.917-3.36a1.073 1.073 0 0 0-1.4-1.631l-2.737 2.35a1.073 1.073 0 0 0-.859-.461h-6.44a1.072 1.072 0 0 0-1.073 1.073v6.44a1.072 1.072 0 0 0 1.073 1.073h6.44a1.073 1.073 0 0 0 1.074-1.073zm-2.147-.956l-1.932 1.664-1.288-1.664zm-4.293 4.294v-2.147l1.288 1.717a1.071 1.071 0 0 0 .74.419h.118a1.07 1.07 0 0 0 .7-.258l1.449-1.234v1.5z" class="prefix__cls-1" data-name="Path 24969"/>
        <path id="prefix__Path_24970" d="M1051.434 1219.172h-6.44a1.073 1.073 0 0 0-1.073 1.073v6.44a1.073 1.073 0 0 0 1.073 1.074h6.44a1.074 1.074 0 0 0 1.074-1.074v-6.44a1.074 1.074 0 0 0-1.074-1.073zm-1.073 6.44h-4.293v-4.293h4.293z" class="prefix__cls-1" data-name="Path 24970"/>
        <path id="prefix__Path_24971" d="M1055.728 1199.852h4.293a1.074 1.074 0 0 0 0-2.147h-4.293a1.074 1.074 0 1 0 0 2.147z" class="prefix__cls-1" data-name="Path 24971"/>
        <path id="prefix__Path_24972" d="M1061.094 1202h-5.366a1.073 1.073 0 1 0 0 2.146h5.366a1.073 1.073 0 1 0 0-2.146z" class="prefix__cls-1" data-name="Path 24972"/>
        <path id="prefix__Path_24973" d="M1055.728 1221.319h4.293a1.073 1.073 0 0 0 0-2.147h-4.293a1.073 1.073 0 1 0 0 2.147z" class="prefix__cls-1" data-name="Path 24973"/>
        <path id="prefix__Path_24974" d="M1055.728 1225.612h5.366a1.074 1.074 0 1 0 0-2.147h-5.366a1.074 1.074 0 1 0 0 2.147z" class="prefix__cls-1" data-name="Path 24974"/>
        <path id="prefix__Path_24975" d="M1060.021 1210.585a1.073 1.073 0 0 0 0-2.146h-1.073a1.073 1.073 0 1 0 0 2.146z" class="prefix__cls-1" data-name="Path 24975"/>
        <path id="prefix__Path_24976" d="M1061.094 1212.732h-5.366a1.073 1.073 0 1 0 0 2.147h5.366a1.073 1.073 0 1 0 0-2.147z" class="prefix__cls-1" data-name="Path 24976"/>
        <path id="prefix__Path_24977" d="M1095.441 1230.979h-55.813V1218.1a1.074 1.074 0 1 0-2.147 0v12.88h-4.293a1.073 1.073 0 0 0-1.074 1.073v2.147a7.514 7.514 0 0 0 7.514 7.513h33.272a1.074 1.074 0 0 0 0-2.147h-33.273a5.366 5.366 0 0 1-5.367-5.366v-1.074h60.107v1.074a5.366 5.366 0 0 1-5.367 5.366h-11.807a1.074 1.074 0 0 0 0 2.147H1089a7.513 7.513 0 0 0 7.513-7.513v-2.147a1.072 1.072 0 0 0-1.072-1.074z" class="prefix__cls-1" data-name="Path 24977"/>
        <path id="prefix__Path_24978" d="M1038.554 1214.879a1.074 1.074 0 0 0 1.074-1.074v-16.1a3.22 3.22 0 0 1 3.22-3.22h42.933a3.22 3.22 0 0 1 3.22 3.22v30.054a1.073 1.073 0 0 0 2.147 0V1197.7a5.366 5.366 0 0 0-5.367-5.366h-42.933a5.366 5.366 0 0 0-5.367 5.366v16.1a1.073 1.073 0 0 0 1.073 1.079z" class="prefix__cls-1" data-name="Path 24978"/>
        <circle id="prefix__Ellipse_45" cx="1.073" cy="1.073" r="1.073" class="prefix__cls-1" data-name="Ellipse 45" transform="translate(1040.701 1235.272)"/>
        <circle id="prefix__Ellipse_46" cx="1.073" cy="1.073" r="1.073" class="prefix__cls-1" data-name="Ellipse 46" transform="translate(1044.994 1235.272)"/>
        <circle id="prefix__Ellipse_47" cx="1.073" cy="1.073" r="1.073" class="prefix__cls-1" data-name="Ellipse 47" transform="translate(1081.488 1235.272)"/>
        <circle id="prefix__Ellipse_48" cx="1.073" cy="1.073" r="1.073" class="prefix__cls-1" data-name="Ellipse 48" transform="translate(1085.781 1235.272)"/>
        <path id="prefix__Path_24979" d="M1055.728 1235.272a1.073 1.073 0 1 0 0 2.147h17.172a1.073 1.073 0 0 0 0-2.147z" class="prefix__cls-1" data-name="Path 24979"/>
    </g>
</svg>
