<svg xmlns="http://www.w3.org/2000/svg" width="65.081" height="64.995" viewBox="0 0 65.081 64.995">
    <defs>
        <style>
            .prefix__cls-1{fill:#584db3}
        </style>
    </defs>
    <g id="prefix__Group_3168" data-name="Group 3168" transform="translate(-514.184 -1186.673)">
        <path id="prefix__Path_24980" d="M567.324 1203.286c.956-.947 1.706-1.685 2.451-2.428.822-.82 1.627-1.657 2.462-2.464a2.248 2.248 0 0 1 3.55.023c.836.805 1.659 1.625 2.458 2.468 1.351 1.425 1.368 2.35 0 3.739-2.441 2.484-4.917 4.935-7.378 7.4-.991.993-1.974 1.995-2.977 2.975a1.658 1.658 0 0 0-.575 1.265c.018 4.209.013 8.418.022 12.627a3.1 3.1 0 0 0 .133.563c1.179-.644 2.316-1.259 3.445-1.886.719-.4 1.409-.855 2.146-1.215a3.423 3.423 0 0 1 3.684 5.752q-7.9 6.383-15.843 12.718c-2.188 1.756-4.4 3.483-6.558 5.275a6.03 6.03 0 0 1-6.206 1.187c-6.654-2.2-13.344-4.292-20.022-6.421-.59-.188-1.194-.33-1.72-.474-.168.159-.277.213-.3.29a3.5 3.5 0 0 1-3.924 2.7c-1.448-.062-2.9.013-4.353-.009-2.333-.034-3.617-1.29-3.626-3.581q-.026-7.257 0-14.514a3.239 3.239 0 0 1 3.347-3.57c1.738-.075 3.482-.018 5.223 0a3.507 3.507 0 0 1 3.317 2.374 2.68 2.68 0 0 0 .473-.078c1.651-.63 1.676-.631 1.678-2.347.01-7.158 0-14.317.007-21.475 0-2.564.055-5.128.054-7.691a3.813 3.813 0 0 1 1.216-2.843q2.892-2.856 5.749-5.746a3.969 3.969 0 0 1 2.983-1.232c8.466.021 16.933.005 25.4.016 2.378 0 3.664 1.3 3.676 3.684.018 3.677.005 7.354.005 11.031zM565 1218.072a2.555 2.555 0 0 0-.567.392c-1.965 2.682-4.771 3.966-7.881 4.727a9.91 9.91 0 0 1-2.268.361c-6.19.026-12.381.01-18.571.006a7.2 7.2 0 0 1-.87-.016c-.7-.087-1.152-.516-1.127-1.091a1.028 1.028 0 0 1 1.009-1.04 12.446 12.446 0 0 1 1.446-.064q7.691-.006 15.379 0h1.628c.486-1.475.97-2.836 1.379-4.219a6.571 6.571 0 0 1 1.81-2.9c2.665-2.6 5.262-5.27 7.925-7.873a2.581 2.581 0 0 0 .828-2.044c-.031-4.207-.01-8.415-.016-12.623 0-2.836-.009-2.841-2.79-2.844q-6.454-.006-12.91 0h-9.718c-.519 0-1.037.046-1.654.075v3.741c-.008 2.529-1.186 3.743-3.7 3.8-.677.016-1.354-.005-2.031-.007h-1.765v29.747a6.012 6.012 0 0 0 .787-.106 11.931 11.931 0 0 1 5.319-.143c3.1.528 6.187 1.085 9.282 1.614 4.144.707 8.289 1.414 12.438 2.088a3.68 3.68 0 0 1 3.186 2.382 4.575 4.575 0 0 0 .349.595c.753-.418 1.44-.85 2.169-1.192a1.728 1.728 0 0 0 1.06-1.83c-.045-3.433-.015-6.867-.023-10.3-.003-.376-.057-.747-.103-1.236zm-38.858 23.948c1.021.3 1.95.547 2.865.839 6.443 2.057 12.894 4.089 19.317 6.208a4.768 4.768 0 0 0 4.962-.891c7.121-5.8 14.307-11.519 21.47-17.268a7.263 7.263 0 0 0 .779-.648 1.172 1.172 0 0 0 .205-1.577 1.219 1.219 0 0 0-1.545-.424 8.183 8.183 0 0 0-1.164.585q-3.975 2.25-7.944 4.509c-3.995 2.262-8.007 4.494-11.982 6.791a3.974 3.974 0 0 1-4.608-.131c-1.32-.894-2.722-1.666-4.036-2.567a4.5 4.5 0 0 0-3.116-.89 12.824 12.824 0 0 1-2.317-.024 1.049 1.049 0 0 1-1.1-1.095c.012-.6.4-.977 1.148-1.056a11.2 11.2 0 0 1 1.16-.018h16.969a7.045 7.045 0 0 0 1.44-.094 1.058 1.058 0 0 0 .852-1.044 1.1 1.1 0 0 0-.678-1.171 4.991 4.991 0 0 0-1.12-.284c-7.331-1.261-14.661-2.534-22-3.748a8.87 8.87 0 0 0-3.023.012c-2.343.438-4.371 1.7-6.533 2.57zm-2.251-5.343c0-2.412.011-4.824 0-7.237-.008-1.253-.278-1.521-1.54-1.541q-2.171-.033-4.342 0c-1.325.018-1.638.283-1.646 1.622q-.04 7.018 0 14.037c.008 1.338.323 1.624 1.642 1.647 1.4.023 2.8-.025 4.2-.044 1.449-.02 1.679-.238 1.686-1.68.009-2.269.003-4.536.009-6.804zm33.9-20.456l2.679 2.654 10.17-10-2.664-2.86zm16.214-16.465l-1.309 1.288 2.833 3.209 1.458-1.518zm-4.6 4.486l3.082 3.041 1.316-1.383-2.914-3.123zm-21.646 32.4l-.1.232c.889.545 1.761 1.12 2.676 1.616a1.254 1.254 0 0 0 .963.051 15.97 15.97 0 0 0 3.3-1.9zm-11.887-45.742l-.326-.16-3.526 3.51c1.088 0 1.8.029 2.517-.007.942-.048 1.258-.362 1.326-1.341.047-.663.009-1.334.009-2.002zm19.792 30.271c1.069-.432 2.016-.453 2.785-1.184l-1.892-1.846c-.248.726-.429 1.214-.58 1.71-.107.356-.177.723-.313 1.321z" class="prefix__cls-1" data-name="Path 24980"/>
        <path id="prefix__Path_24981" d="M547.693 1201.856h-11.9a3.147 3.147 0 0 1-1.283-.1 1.542 1.542 0 0 1-.759-.928.9.9 0 0 1 .791-1.042 4.412 4.412 0 0 1 1.01-.066h24.528a5.344 5.344 0 0 1 .868.04.987.987 0 0 1 .9.982 1.01 1.01 0 0 1-.945 1.082 7.438 7.438 0 0 1-1.158.04q-6.029-.006-12.052-.008z" class="prefix__cls-1" data-name="Path 24981"/>
        <path id="prefix__Path_24982" d="M550.324 1207.3h-8.106a5.866 5.866 0 0 1-1.011-.035 1.024 1.024 0 0 1-.949-1.087.969.969 0 0 1 .866-1 5.2 5.2 0 0 1 1.005-.086q8.4-.007 16.79 0a4.959 4.959 0 0 1 1 .093.949.949 0 0 1 .806 1.044 1 1 0 0 1-.858 1.018 6.051 6.051 0 0 1-1.152.062q-4.2.006-8.4 0z" class="prefix__cls-1" data-name="Path 24982"/>
        <path id="prefix__Path_24983" d="M542.208 1218.123c-2.272 0-4.545.013-6.816-.005-1.147-.009-1.721-.426-1.676-1.139.042-.662.562-1 1.651-1.007q7.034-.018 14.067-.011a3.394 3.394 0 0 1 .721.05 1.009 1.009 0 0 1 .874 1.01.986.986 0 0 1-.851 1.024 5.759 5.759 0 0 1-1.154.071c-2.272.006-4.544 0-6.816 0z" class="prefix__cls-1" data-name="Path 24983"/>
        <path id="prefix__Path_24984" d="M539.192 1210.511h3.607a4.251 4.251 0 0 1 .861.048.964.964 0 0 1 .806 1.042.9.9 0 0 1-.693.974 5.835 5.835 0 0 1-1.284.14c-2.308.009-4.617 0-6.926-.009a4.784 4.784 0 0 1-.719-.038c-.728-.114-1.133-.514-1.126-1.083s.435-.981 1.146-1.06a8.067 8.067 0 0 1 .865-.014h3.463z" class="prefix__cls-1" data-name="Path 24984"/>
        <path id="prefix__Path_24985" d="M551.167 1210.516c.964 0 1.93-.025 2.894.007.826.028 1.293.428 1.318 1.039a1.121 1.121 0 0 1-1.244 1.127q-3.109.06-6.221-.028a1.061 1.061 0 0 1-1.179-1.022c-.016-.62.449-1.079 1.248-1.11 1.06-.04 2.122-.01 3.184-.01z" class="prefix__cls-1" data-name="Path 24985"/>
        <path id="prefix__Path_24986" d="M535.825 1207.275a6.9 6.9 0 0 1-1.152-.012 1.029 1.029 0 0 1-.943-1.094.942.942 0 0 1 .885-.982 15.1 15.1 0 0 1 2.444-.029.951.951 0 0 1 .935 1.079 1.052 1.052 0 0 1-1.015 1.036 9.856 9.856 0 0 1-1.154.009z" class="prefix__cls-1" data-name="Path 24986"/>
        <path id="prefix__Path_24987" d="M520.155 1232.249a4.313 4.313 0 0 1-.808-.1.911.911 0 0 1-.742-1.07 1.425 1.425 0 0 1 .747-.906 3.451 3.451 0 0 1 1.546-.044.941.941 0 0 1 .839 1.009 1.022 1.022 0 0 1-.827 1.037 4.5 4.5 0 0 1-.755.074z" class="prefix__cls-1" data-name="Path 24987"/>
        <path id="prefix__Path_24988" d="M519.948 1243.053a1.773 1.773 0 0 1-.8-.195 1.276 1.276 0 0 1-.534-.9 1.328 1.328 0 0 1 .679-.935 3.748 3.748 0 0 1 1.546-.073.918.918 0 0 1 .887.949 1.022 1.022 0 0 1-.909 1.1 6.719 6.719 0 0 1-.869.054z" class="prefix__cls-1" data-name="Path 24988"/>
    </g>
</svg>
