<?xml version="1.0" standalone="no"?>
<!DOCTYPE svg PUBLIC "-//W3C//DTD SVG 20010904//EN"
 "http://www.w3.org/TR/2001/REC-SVG-20010904/DTD/svg10.dtd">
<svg version="1.0" xmlns="http://www.w3.org/2000/svg"
 width="318.000000pt" height="186.000000pt" viewBox="0 0 318.000000 186.000000"
 preserveAspectRatio="xMidYMid meet">

<g transform="translate(0.000000,186.000000) scale(0.100000,-0.100000)"
fill="#000000" stroke="none">
<path d="M2435 1704 c-209 -31 -365 -117 -416 -229 -63 -137 45 -305 236 -365
49 -15 75 -37 75 -62 0 -32 -27 -73 -56 -87 -22 -10 -25 -14 -13 -22 19 -12
92 -11 126 2 15 5 55 37 89 70 34 32 66 59 71 59 53 0 240 24 283 36 114 33
186 90 228 182 45 98 17 200 -78 285 -97 88 -214 127 -395 132 -66 2 -133 1
-150 -1z m-145 -269 l0 -135 60 0 60 0 0 -40 0 -41 -97 3 -98 3 -3 173 -2 172
40 0 40 0 0 -135z m362 -34 c20 -91 35 -168 32 -173 -3 -4 -23 -8 -44 -8 -32
0 -39 4 -42 23 -2 18 -9 22 -38 22 -29 0 -36 -4 -38 -22 -3 -20 -9 -23 -48
-23 -41 0 -44 2 -39 23 13 55 66 284 70 305 5 21 10 23 58 20 l51 -3 38 -164z
m260 139 c27 -28 29 -35 24 -78 -8 -59 -8 -75 0 -133 5 -39 2 -50 -21 -77 -26
-32 -28 -32 -116 -32 l-89 0 0 175 0 175 86 0 c82 0 87 -1 116 -30z m-732
-290 c0 -25 -4 -30 -25 -30 -14 0 -28 7 -31 15 -10 25 4 45 31 45 21 0 25 -5
25 -30z"/>
<path d="M2550 1428 c0 -8 -3 -30 -6 -47 -6 -27 -4 -31 14 -31 18 0 20 4 15
38 -6 38 -23 69 -23 40z"/>
<path d="M2790 1459 c0 -28 2 -30 32 -27 57 5 48 57 -9 58 -19 0 -23 -5 -23
-31z"/>
<path d="M2790 1330 c0 -29 2 -31 33 -28 27 2 32 7 32 28 0 21 -5 26 -32 28
-31 3 -33 1 -33 -28z"/>
<path d="M1991 1099 c-51 -16 -89 -48 -114 -98 -20 -42 -22 -63 -25 -248 -4
-230 4 -276 62 -332 76 -73 253 -81 328 -14 11 10 31 41 44 68 22 47 24 62 24
236 l0 187 -27 7 c-28 7 -73 42 -73 57 0 4 8 8 18 8 11 0 27 9 37 20 16 18 17
21 1 45 -26 40 -90 66 -170 71 -39 2 -86 -1 -105 -7z m137 -155 c21 -15 22
-20 22 -198 0 -211 -3 -221 -70 -221 -67 0 -70 10 -70 219 0 153 2 182 17 198
20 22 71 24 101 2z"/>
<path d="M150 740 l0 -360 143 0 c161 0 203 9 252 51 60 53 70 98 70 319 0
183 -1 198 -22 237 -29 53 -76 89 -133 102 -25 6 -105 11 -177 11 l-133 0 0
-360z m302 150 c14 -27 18 -60 18 -145 0 -175 -19 -210 -111 -203 l-44 3 -3
193 -2 193 62 -3 c61 -3 64 -4 80 -38z"/>
<path d="M700 735 l0 -355 208 2 207 3 3 78 3 77 -131 0 -130 0 0 60 0 60 105
0 105 0 0 80 0 80 -105 0 -105 0 0 55 0 55 130 0 130 0 0 80 0 80 -210 0 -210
0 0 -355z"/>
<path d="M1200 735 c0 -339 1 -355 19 -355 10 0 46 3 80 6 l61 7 1 141 c0 90
4 132 9 116 5 -14 18 -58 29 -97 l22 -73 59 0 c68 0 68 -1 95 105 29 114 36
102 33 -51 l-3 -142 59 -6 c32 -3 70 -6 82 -6 l24 0 0 355 0 355 -82 0 -83 0
-60 -175 c-43 -125 -62 -170 -68 -158 -5 8 -33 86 -61 172 l-53 156 -81 3 -82
3 0 -356z"/>
<path d="M157 243 c-4 -3 -7 -32 -7 -64 0 -64 16 -83 58 -72 31 8 27 22 -5 20
-27 -2 -28 0 -31 47 -4 55 9 76 33 56 17 -14 31 -8 20 9 -7 12 -58 15 -68 4z"/>
<path d="M306 235 c-3 -9 -6 -39 -6 -65 0 -58 21 -77 65 -60 25 9 26 13 23 72
l-3 63 -36 3 c-26 2 -38 -1 -43 -13z m59 -55 c0 -48 -2 -55 -20 -55 -16 0 -21
8 -23 44 -4 54 3 73 25 69 15 -3 18 -14 18 -58z"/>
<path d="M460 181 c0 -83 18 -105 22 -29 l3 53 24 -47 c36 -70 51 -63 51 22 0
78 -17 96 -22 23 l-3 -48 -28 48 c-15 26 -32 47 -37 47 -6 0 -10 -31 -10 -69z"/>
<path d="M637 244 c-4 -4 -7 -33 -7 -65 0 -48 3 -60 20 -69 22 -12 60 -5 60
10 0 5 -12 8 -27 7 -27 -2 -28 -1 -28 53 0 55 4 61 42 49 6 -2 13 1 15 6 4 12
-64 20 -75 9z"/>
<path d="M782 178 l3 -73 34 -3 c18 -2 38 1 44 7 8 8 2 11 -21 11 -27 0 -32 4
-32 25 0 20 5 25 25 25 14 0 25 5 25 10 0 6 -11 10 -25 10 -20 0 -25 5 -25 24
0 20 6 25 33 29 24 3 21 4 -16 5 l-48 2 3 -72z"/>
<path d="M988 188 l-3 -63 -30 3 c-28 2 -29 1 -12 -12 13 -10 26 -12 40 -7 19
7 22 17 25 75 2 39 -1 66 -7 66 -6 0 -11 -28 -13 -62z"/>
<path d="M1092 238 c-7 -7 -12 -33 -12 -59 0 -38 5 -51 22 -63 29 -20 34 -20
58 4 22 22 27 78 10 111 -12 22 -59 26 -78 7z m56 -56 c2 -41 0 -54 -13 -59
-31 -11 -48 55 -24 98 17 33 34 16 37 -39z"/>
<path d="M1351 183 c-20 -65 -20 -96 0 -60 14 23 37 21 60 -5 10 -13 18 -18
19 -12 0 24 -41 144 -50 144 -5 0 -18 -30 -29 -67z m39 -13 c0 -11 -4 -20 -10
-20 -5 0 -10 9 -10 20 0 11 5 20 10 20 6 0 10 -9 10 -20z"/>
<path d="M1500 180 c0 -78 9 -89 57 -73 25 9 28 15 30 54 2 80 -2 89 -47 89
l-40 0 0 -70z m60 45 c15 -18 5 -35 -21 -35 -14 0 -19 7 -19 25 0 28 21 33 40
10z m5 -80 c0 -13 -8 -21 -22 -23 -19 -3 -23 1 -23 23 0 22 4 26 23 23 14 -2
22 -10 22 -23z"/>
<path d="M1660 180 c0 -40 4 -70 10 -70 6 0 10 30 10 70 0 40 -4 70 -10 70 -6
0 -10 -30 -10 -70z"/>
<path d="M1762 178 c3 -71 4 -73 30 -76 15 -2 35 1 45 7 15 9 11 10 -19 11
-34 0 -38 3 -38 25 0 20 5 25 25 25 14 0 25 5 25 10 0 6 -11 10 -25 10 -20 0
-25 5 -25 24 0 21 5 25 38 29 34 3 33 4 -11 5 l-48 2 3 -72z"/>
<path d="M1920 181 c0 -41 4 -71 10 -71 6 0 10 14 10 30 0 19 5 30 14 30 8 0
19 -13 25 -30 5 -17 15 -30 20 -30 13 0 13 2 1 36 -7 18 -7 30 1 40 6 7 9 23
7 36 -2 19 -10 23 -45 26 l-43 3 0 -70z m68 32 c3 -19 -1 -23 -22 -23 -21 0
-26 5 -26 26 0 21 4 25 23 22 14 -2 23 -11 25 -25z"/>
<path d="M2083 243 c14 -4 17 -16 17 -69 0 -36 4 -64 10 -64 6 0 10 27 10 60
0 54 3 62 23 70 17 7 11 9 -28 8 -27 0 -42 -2 -32 -5z"/>
<path d="M2227 243 c-4 -3 -7 -32 -7 -64 0 -65 14 -81 60 -70 21 6 25 13 28
51 5 72 -3 90 -42 90 -18 0 -36 -3 -39 -7z m58 -63 c0 -48 -2 -55 -20 -55 -16
0 -21 8 -23 44 -4 54 3 73 25 69 15 -3 18 -14 18 -58z"/>
</g>
</svg>
